<svg viewBox="0 0 36 24">
    <rect width="36" height="24" fill="#f3f4f5"/>
    
    <line x1="27.57" y1="9.23" x2="24.24" y2="4.23" stroke="#000"/>
    <line x1="30.06" y1="7.56" x2="26.74" y2="2.57" stroke="#000"/>
  
    <line x1="27.57" y1="14.77" x2="24.24" y2="19.77" stroke="#000"/>
    <line x1="28.82" y1="15.61" x2="25.49" y2="20.6" stroke="#000"/>
    <line x1="30.06" y1="16.44" x2="26.74" y2="21.43" stroke="#000"/>
  
    <line x2="36" y2="24" stroke="#f3f4f5" stroke-width="0.5"/>

    <line x1="8.43" y1="9.23" x2="11.76" y2="4.23" stroke="#000"/>
    <line x1="7.18" y1="8.39" x2="10.51" y2="3.4" stroke="#000"/>
    <line x1="5.94" y1="7.56" x2="9.26" y2="2.57" stroke="#000"/>
  
    <line x1="7.18" y1="15.61" x2="10.51" y2="20.6" stroke="#000"/>
  
    <line x1="36" y2="24" stroke="#f3f4f5" stroke-width="0.5"/>
  
    <line x1="28.82" y1="8.39" x2="25.49" y2="3.4" stroke="#000"/>
  
    <line x1="8.43" y1="14.77" x2="11.76" y2="19.77" stroke="#000"/>
    <line x1="5.94" y1="16.44" x2="9.26" y2="21.43" stroke="#000"/>
  
    <circle cx="18" cy="12" r="6" fill="#e73a36"/>
    <path d="M18 6 A6 6 0 0 0 18 18 A3 3 0 0 0 18 12 A3 3 0 0 1 18 6" transform="rotate(-56, 18 12)" fill="#13467c"/>
</svg>